<?xml version="1.0" standalone="no"?>
<!DOCTYPE svg PUBLIC "-//W3C//DTD SVG 20010904//EN"
 "http://www.w3.org/TR/2001/REC-SVG-20010904/DTD/svg10.dtd">
<svg version="1.0" xmlns="http://www.w3.org/2000/svg"
 width="300.000000pt" height="199.000000pt" viewBox="0 0 300.000000 199.000000"
 preserveAspectRatio="xMidYMid meet">
<metadata>
Created by potrace 1.10, written by Peter Selinger 2001-2011
</metadata>
<g transform="translate(0.000000,199.000000) scale(0.100000,-0.100000)"
fill="#000000" stroke="none">
<path d="M1134 1456 c-229 -56 -400 -288 -379 -516 12 -136 13 -133 -72 -249
-32 -44 -53 -83 -51 -95 2 -11 22 -31 48 -46 47 -27 62 -59 40 -85 -16 -20 -5
-45 20 -45 21 0 27 -14 10 -25 -15 -9 -12 -41 5 -55 12 -10 14 -25 9 -70 -8
-70 11 -113 57 -129 48 -16 71 -14 229 24 227 55 305 65 515 65 206 0 233 6
249 51 13 39 0 77 -34 94 -23 12 -66 15 -198 15 -159 0 -171 1 -202 23 -94 63
-92 190 3 261 27 20 45 21 284 26 253 5 255 5 274 29 26 32 24 67 -6 96 -24
24 -28 25 -184 25 -153 0 -161 1 -187 23 -20 17 -27 33 -27 57 0 24 7 40 27
57 25 21 36 23 142 23 64 0 124 4 134 10 43 23 44 106 1 129 -13 7 -126 11
-314 11 -283 0 -295 1 -321 21 -35 27 -36 86 -3 117 23 22 28 22 380 22 342 0
358 1 377 20 31 31 36 68 13 98 l-20 27 -384 2 c-278 1 -398 -2 -435 -11z
m811 -32 c18 -24 18 -25 -1 -52 l-15 -22 -346 0 c-384 0 -387 0 -419 -68 -20
-42 -12 -75 26 -113 22 -23 38 -29 72 -30 24 0 156 -1 294 -2 267 -2 284 -5
284 -51 0 -39 -18 -46 -127 -46 -119 0 -162 -13 -189 -59 l-18 -30 -22 33
c-22 32 -63 54 -91 50 -7 -1 -19 -2 -25 -3 -25 -2 -65 -46 -72 -78 -5 -19 -3
-41 5 -55 41 -79 107 -92 166 -33 l35 35 38 -34 c30 -27 50 -36 92 -41 30 -4
61 -6 68 -5 8 1 59 2 113 1 94 -1 98 -2 109 -26 10 -22 9 -29 -8 -45 -17 -18
-37 -20 -254 -22 -218 -3 -238 -5 -276 -25 -102 -54 -128 -197 -51 -282 47
-51 89 -61 259 -61 149 0 158 -1 178 -22 26 -28 25 -44 -2 -62 -17 -10 -78
-15 -243 -20 -226 -6 -244 -8 -485 -66 -142 -34 -199 -35 -229 -5 -10 10 -18
42 -23 88 -3 40 -12 92 -18 117 -7 25 -13 61 -15 80 -3 55 -13 73 -48 95 -44
28 -45 53 -2 110 73 95 80 118 77 238 -2 73 2 128 12 167 16 63 63 160 76 160
5 0 12 9 15 20 8 25 126 119 180 144 85 39 155 44 517 42 332 -2 349 -3 363
-22z m-494 -443 c16 -16 29 -39 29 -51 0 -30 -53 -80 -84 -80 -39 0 -79 41
-79 80 0 24 7 40 27 57 37 31 71 29 107 -6z"/>
<path d="M2071 1444 c-24 -30 -26 -46 -9 -77 29 -55 76 -61 120 -17 24 25 29
36 23 58 -11 43 -34 62 -76 62 -29 0 -42 -6 -58 -26z m85 -12 c34 -23 9 -84
-33 -78 -25 4 -44 45 -32 68 10 18 45 24 65 10z"/>
<path d="M1941 1134 c-28 -35 -26 -69 4 -99 30 -30 64 -32 99 -4 33 26 36 79
6 109 -30 30 -83 27 -109 -6z m87 -16 c27 -27 4 -78 -37 -78 -14 0 -41 29 -41
45 0 35 53 58 78 33z"/>
<path d="M2040 830 c-45 -45 -11 -130 52 -130 36 0 78 40 78 75 0 61 -87 98
-130 55z m86 -31 c20 -22 13 -43 -19 -63 -36 -23 -75 36 -47 70 17 20 44 17
66 -7z"/>
<path d="M1912 365 c-53 -44 -35 -114 33 -131 50 -13 105 50 86 99 -21 55 -75
69 -119 32z m82 -36 c30 -43 -33 -88 -66 -48 -22 26 -22 33 -2 53 22 22 50 20
68 -5z"/>
</g>
</svg>
